<mxfile host="app.diagrams.net" agent="Mozilla/5.0 (Windows NT 10.0; Win64; x64) AppleWebKit/537.36 (KHTML, like Gecko) Chrome/138.0.0.0 Safari/537.36" version="27.2.0">
  <diagram name="Page-1" id="ljjl3CG4BBazV8FL-I35">
    <mxGraphModel dx="2985" dy="1978" grid="1" gridSize="10" guides="1" tooltips="1" connect="1" arrows="1" fold="1" page="1" pageScale="1" pageWidth="850" pageHeight="1100" math="0" shadow="0">
      <root>
        <mxCell id="0" />
        <mxCell id="1" parent="0" />
        <mxCell id="ro-9P0nDEgXFyzDZA6Mf-33" value="" style="rounded=0;whiteSpace=wrap;html=1;" vertex="1" parent="1">
          <mxGeometry x="120" y="-330" width="640" height="620" as="geometry" />
        </mxCell>
        <mxCell id="ro-9P0nDEgXFyzDZA6Mf-47" value="" style="rounded=0;whiteSpace=wrap;html=1;" vertex="1" parent="1">
          <mxGeometry x="145" y="-300" width="600" height="270" as="geometry" />
        </mxCell>
        <mxCell id="ro-9P0nDEgXFyzDZA6Mf-41" style="edgeStyle=orthogonalEdgeStyle;rounded=0;orthogonalLoop=1;jettySize=auto;html=1;exitX=0.994;exitY=0.595;exitDx=0;exitDy=0;exitPerimeter=0;" edge="1" parent="1" source="ro-9P0nDEgXFyzDZA6Mf-36">
          <mxGeometry relative="1" as="geometry">
            <mxPoint x="189" y="120" as="targetPoint" />
          </mxGeometry>
        </mxCell>
        <mxCell id="ro-9P0nDEgXFyzDZA6Mf-36" value="" style="rounded=0;whiteSpace=wrap;html=1;" vertex="1" parent="1">
          <mxGeometry x="-490" y="-130" width="470" height="420" as="geometry" />
        </mxCell>
        <mxCell id="ro-9P0nDEgXFyzDZA6Mf-30" value="" style="rounded=0;whiteSpace=wrap;html=1;" vertex="1" parent="1">
          <mxGeometry x="80" y="780" width="730" height="350" as="geometry" />
        </mxCell>
        <mxCell id="ro-9P0nDEgXFyzDZA6Mf-18" value="" style="rounded=0;whiteSpace=wrap;html=1;" vertex="1" parent="1">
          <mxGeometry x="80" y="380" width="730" height="290" as="geometry" />
        </mxCell>
        <mxCell id="1r56mx8-5Ug33jFVJT9m-14" style="edgeStyle=orthogonalEdgeStyle;rounded=0;orthogonalLoop=1;jettySize=auto;html=1;entryX=0.5;entryY=1;entryDx=0;entryDy=0;" parent="1" source="1r56mx8-5Ug33jFVJT9m-11" target="1r56mx8-5Ug33jFVJT9m-12" edge="1">
          <mxGeometry relative="1" as="geometry" />
        </mxCell>
        <mxCell id="1r56mx8-5Ug33jFVJT9m-11" value="ASLDataEmitter" style="rounded=0;whiteSpace=wrap;html=1;" parent="1" vertex="1">
          <mxGeometry x="385" y="410" width="120" height="60" as="geometry" />
        </mxCell>
        <mxCell id="1r56mx8-5Ug33jFVJT9m-18" value="" style="edgeStyle=orthogonalEdgeStyle;rounded=0;orthogonalLoop=1;jettySize=auto;html=1;" parent="1" source="1r56mx8-5Ug33jFVJT9m-12" target="1r56mx8-5Ug33jFVJT9m-17" edge="1">
          <mxGeometry relative="1" as="geometry" />
        </mxCell>
        <mxCell id="1r56mx8-5Ug33jFVJT9m-12" value="EndPoint Handler" style="rounded=0;whiteSpace=wrap;html=1;" parent="1" vertex="1">
          <mxGeometry x="385" y="210" width="120" height="60" as="geometry" />
        </mxCell>
        <mxCell id="1r56mx8-5Ug33jFVJT9m-20" value="" style="edgeStyle=orthogonalEdgeStyle;rounded=0;orthogonalLoop=1;jettySize=auto;html=1;" parent="1" source="1r56mx8-5Ug33jFVJT9m-17" target="1r56mx8-5Ug33jFVJT9m-19" edge="1">
          <mxGeometry relative="1" as="geometry" />
        </mxCell>
        <mxCell id="1r56mx8-5Ug33jFVJT9m-17" value="LandMark Preprocessor" style="rounded=0;whiteSpace=wrap;html=1;" parent="1" vertex="1">
          <mxGeometry x="620" y="90" width="120" height="60" as="geometry" />
        </mxCell>
        <mxCell id="ro-9P0nDEgXFyzDZA6Mf-46" value="" style="edgeStyle=orthogonalEdgeStyle;rounded=0;orthogonalLoop=1;jettySize=auto;html=1;" edge="1" parent="1" source="1r56mx8-5Ug33jFVJT9m-19" target="1r56mx8-5Ug33jFVJT9m-24">
          <mxGeometry relative="1" as="geometry" />
        </mxCell>
        <mxCell id="1r56mx8-5Ug33jFVJT9m-19" value="Model Handler" style="rounded=0;whiteSpace=wrap;html=1;" parent="1" vertex="1">
          <mxGeometry x="385" y="90" width="120" height="60" as="geometry" />
        </mxCell>
        <mxCell id="1r56mx8-5Ug33jFVJT9m-27" value="" style="edgeStyle=orthogonalEdgeStyle;rounded=0;orthogonalLoop=1;jettySize=auto;html=1;" parent="1" source="1r56mx8-5Ug33jFVJT9m-24" target="1r56mx8-5Ug33jFVJT9m-26" edge="1">
          <mxGeometry relative="1" as="geometry" />
        </mxCell>
        <mxCell id="1r56mx8-5Ug33jFVJT9m-24" value="Controller" style="rounded=0;whiteSpace=wrap;html=1;" parent="1" vertex="1">
          <mxGeometry x="385" y="-10" width="120" height="60" as="geometry" />
        </mxCell>
        <mxCell id="1r56mx8-5Ug33jFVJT9m-29" value="" style="edgeStyle=orthogonalEdgeStyle;rounded=0;orthogonalLoop=1;jettySize=auto;html=1;" parent="1" source="1r56mx8-5Ug33jFVJT9m-26" target="1r56mx8-5Ug33jFVJT9m-28" edge="1">
          <mxGeometry relative="1" as="geometry" />
        </mxCell>
        <mxCell id="1r56mx8-5Ug33jFVJT9m-26" value="MainWindow" style="rounded=0;whiteSpace=wrap;html=1;" parent="1" vertex="1">
          <mxGeometry x="385" y="-180" width="120" height="60" as="geometry" />
        </mxCell>
        <mxCell id="1r56mx8-5Ug33jFVJT9m-28" value="TextDisplayPanel" style="rounded=0;whiteSpace=wrap;html=1;" parent="1" vertex="1">
          <mxGeometry x="610" y="-180" width="120" height="60" as="geometry" />
        </mxCell>
        <mxCell id="ro-9P0nDEgXFyzDZA6Mf-32" value="" style="edgeStyle=orthogonalEdgeStyle;rounded=0;orthogonalLoop=1;jettySize=auto;html=1;" edge="1" parent="1" source="ro-9P0nDEgXFyzDZA6Mf-1" target="ro-9P0nDEgXFyzDZA6Mf-3">
          <mxGeometry relative="1" as="geometry">
            <mxPoint x="460" y="680" as="targetPoint" />
          </mxGeometry>
        </mxCell>
        <mxCell id="ro-9P0nDEgXFyzDZA6Mf-1" value="P&lt;span style=&quot;background-color: transparent; color: light-dark(rgb(0, 0, 0), rgb(255, 255, 255));&quot;&gt;ublisher&lt;/span&gt;" style="rounded=0;whiteSpace=wrap;html=1;" vertex="1" parent="1">
          <mxGeometry x="385" y="810" width="120" height="60" as="geometry" />
        </mxCell>
        <mxCell id="ro-9P0nDEgXFyzDZA6Mf-8" value="" style="edgeStyle=orthogonalEdgeStyle;rounded=0;orthogonalLoop=1;jettySize=auto;html=1;" edge="1" parent="1" source="ro-9P0nDEgXFyzDZA6Mf-3" target="1r56mx8-5Ug33jFVJT9m-11">
          <mxGeometry relative="1" as="geometry">
            <mxPoint x="260" y="550" as="targetPoint" />
          </mxGeometry>
        </mxCell>
        <mxCell id="ro-9P0nDEgXFyzDZA6Mf-3" value="Subscriber" style="rounded=0;whiteSpace=wrap;html=1;" vertex="1" parent="1">
          <mxGeometry x="385" y="550" width="120" height="60" as="geometry" />
        </mxCell>
        <mxCell id="ro-9P0nDEgXFyzDZA6Mf-7" value="Communicate via IP adresses" style="text;html=1;align=center;verticalAlign=middle;whiteSpace=wrap;rounded=0;" vertex="1" parent="1">
          <mxGeometry x="455" y="710" width="175" height="30" as="geometry" />
        </mxCell>
        <mxCell id="ro-9P0nDEgXFyzDZA6Mf-19" value="Network Application&lt;div&gt;&lt;br&gt;&lt;/div&gt;" style="text;html=1;align=center;verticalAlign=middle;whiteSpace=wrap;rounded=0;" vertex="1" parent="1">
          <mxGeometry x="80" y="390" width="140" height="30" as="geometry" />
        </mxCell>
        <mxCell id="ro-9P0nDEgXFyzDZA6Mf-23" value="annotate from camera" style="text;html=1;align=center;verticalAlign=middle;whiteSpace=wrap;rounded=0;" vertex="1" parent="1">
          <mxGeometry x="260" y="960" width="120" height="30" as="geometry" />
        </mxCell>
        <mxCell id="ro-9P0nDEgXFyzDZA6Mf-26" style="edgeStyle=orthogonalEdgeStyle;rounded=0;orthogonalLoop=1;jettySize=auto;html=1;exitX=0.5;exitY=1;exitDx=0;exitDy=0;" edge="1" parent="1">
          <mxGeometry relative="1" as="geometry">
            <mxPoint x="360" y="1020" as="sourcePoint" />
            <mxPoint x="360" y="1020" as="targetPoint" />
          </mxGeometry>
        </mxCell>
        <mxCell id="ro-9P0nDEgXFyzDZA6Mf-29" value="" style="edgeStyle=orthogonalEdgeStyle;rounded=0;orthogonalLoop=1;jettySize=auto;html=1;" edge="1" parent="1" source="ro-9P0nDEgXFyzDZA6Mf-27" target="ro-9P0nDEgXFyzDZA6Mf-1">
          <mxGeometry relative="1" as="geometry" />
        </mxCell>
        <mxCell id="ro-9P0nDEgXFyzDZA6Mf-27" value="Hand Detector" style="rounded=0;whiteSpace=wrap;html=1;" vertex="1" parent="1">
          <mxGeometry x="100" y="960" width="120" height="60" as="geometry" />
        </mxCell>
        <mxCell id="ro-9P0nDEgXFyzDZA6Mf-31" value="Raspberry Pi 4 Application" style="text;html=1;align=center;verticalAlign=middle;whiteSpace=wrap;rounded=0;" vertex="1" parent="1">
          <mxGeometry x="80" y="780" width="160" height="30" as="geometry" />
        </mxCell>
        <mxCell id="ro-9P0nDEgXFyzDZA6Mf-34" value="Core Application" style="text;html=1;align=center;verticalAlign=middle;whiteSpace=wrap;rounded=0;" vertex="1" parent="1">
          <mxGeometry x="120" y="-330" width="100" height="30" as="geometry" />
        </mxCell>
        <mxCell id="ro-9P0nDEgXFyzDZA6Mf-37" value="AI model" style="text;html=1;align=center;verticalAlign=middle;whiteSpace=wrap;rounded=0;" vertex="1" parent="1">
          <mxGeometry x="-485" y="-130" width="60" height="30" as="geometry" />
        </mxCell>
        <mxCell id="ro-9P0nDEgXFyzDZA6Mf-42" value="Deploy model" style="text;html=1;align=center;verticalAlign=middle;whiteSpace=wrap;rounded=0;" vertex="1" parent="1">
          <mxGeometry x="-10" y="90" width="130" height="30" as="geometry" />
        </mxCell>
        <mxCell id="ro-9P0nDEgXFyzDZA6Mf-43" value="API Communication with the network layer&amp;nbsp;" style="text;html=1;align=center;verticalAlign=middle;whiteSpace=wrap;rounded=0;" vertex="1" parent="1">
          <mxGeometry x="455" y="320" width="250" height="30" as="geometry" />
        </mxCell>
        <mxCell id="ro-9P0nDEgXFyzDZA6Mf-45" value="" style="edgeStyle=orthogonalEdgeStyle;rounded=0;orthogonalLoop=1;jettySize=auto;html=1;" edge="1" parent="1" source="ro-9P0nDEgXFyzDZA6Mf-44" target="1r56mx8-5Ug33jFVJT9m-19">
          <mxGeometry relative="1" as="geometry" />
        </mxCell>
        <mxCell id="ro-9P0nDEgXFyzDZA6Mf-44" value="ASLNet" style="rounded=0;whiteSpace=wrap;html=1;" vertex="1" parent="1">
          <mxGeometry x="190" y="90" width="120" height="60" as="geometry" />
        </mxCell>
        <mxCell id="ro-9P0nDEgXFyzDZA6Mf-48" value="UI" style="text;html=1;align=center;verticalAlign=middle;whiteSpace=wrap;rounded=0;" vertex="1" parent="1">
          <mxGeometry x="130" y="-300" width="60" height="30" as="geometry" />
        </mxCell>
        <mxCell id="ro-9P0nDEgXFyzDZA6Mf-49" value="send input" style="text;html=1;align=center;verticalAlign=middle;whiteSpace=wrap;rounded=0;" vertex="1" parent="1">
          <mxGeometry x="530" y="90" width="60" height="30" as="geometry" />
        </mxCell>
        <mxCell id="ro-9P0nDEgXFyzDZA6Mf-50" value="uses" style="text;html=1;align=center;verticalAlign=middle;whiteSpace=wrap;rounded=0;" vertex="1" parent="1">
          <mxGeometry x="320" y="90" width="60" height="30" as="geometry" />
        </mxCell>
      </root>
    </mxGraphModel>
  </diagram>
</mxfile>
